<svg width="100" height="19" viewBox="0 0 100 19" fill="none" xmlns="http://www.w3.org/2000/svg">
<path fill-rule="evenodd" clip-rule="evenodd" d="M2.40836 15.8903C0.150716 13.6518 0.150752 10.0225 2.40843 7.78401L8.54037 1.70415C10.4489 -0.188159 13.3599 -0.480818 15.5784 0.82618C16.2647 1.23045 16.2587 2.15782 15.6943 2.71745C15.1299 3.27708 14.2085 3.22891 13.4424 3.00674C12.4613 2.72225 11.3581 2.96359 10.5844 3.73074L4.45239 9.81056C3.32355 10.9298 3.32354 12.7445 4.45236 13.8637C5.58121 14.983 7.41146 14.983 8.5403 13.8637L20.8041 1.70423C23.0618 -0.534266 26.7222 -0.534276 28.9799 1.7042L35.1119 7.78401C37.3696 10.0224 37.3696 13.6518 35.1119 15.8903C32.8543 18.1288 29.1938 18.1288 26.9361 15.8903L24.8922 13.8637L22.3372 16.397C20.4286 18.2893 17.5177 18.5819 15.299 17.2749C14.6128 16.8707 14.6188 15.9433 15.1833 15.3837C15.7477 14.824 16.669 14.8722 17.4352 15.0943C18.4162 15.3789 19.5195 15.1375 20.2932 14.3704L22.9212 11.7648C24.0097 10.6855 25.7745 10.6855 26.8631 11.7648L28.9801 13.8637C30.1089 14.983 31.9391 14.983 33.0679 13.8637C34.1968 12.7445 34.1968 10.9298 33.0679 9.81056L26.9359 3.73081C25.8071 2.61157 23.9769 2.61158 22.8481 3.73083L10.5843 15.8904C8.32655 18.1289 4.66605 18.1289 2.40836 15.8903Z" fill="#1D2D35" fill-opacity="0.5"/>
<path d="M59.8967 3.27407C58.4761 3.27407 57.3998 3.78277 56.6895 4.80016C56.0654 3.78277 55.0752 3.27407 53.7622 3.27407C52.4062 3.27407 51.4161 3.74038 50.7703 4.69418V3.57081H47.9937V14.1687H50.7703V8.21265C50.7703 6.66539 51.5667 5.81756 52.7936 5.81756C53.9344 5.81756 54.6017 6.55941 54.6017 7.83118V14.1687H57.3783V8.21265C57.3783 6.66539 58.1102 5.81756 59.3801 5.81756C60.5209 5.81756 61.1881 6.55941 61.1881 7.83118V14.1687H63.9648V7.64037C63.9648 4.99093 62.372 3.27407 59.8967 3.27407Z" fill="#1D2D35" fill-opacity="0.5"/>
<path d="M74.287 4.82136C73.4476 3.78277 72.2853 3.27407 70.7786 3.27407C69.3364 3.27407 68.1096 3.82516 67.0764 4.90614C66.0648 5.98712 65.5481 7.30127 65.5481 8.86976C65.5481 10.4382 66.0648 11.7736 67.0764 12.8546C68.1096 13.9355 69.3364 14.4654 70.7786 14.4654C72.2853 14.4654 73.4476 13.9567 74.287 12.9181V14.1687H77.0639V3.57081H74.287V4.82136ZM69.1643 11.0317C68.6046 10.4594 68.3248 9.73875 68.3248 8.86976C68.3248 8.0007 68.6046 7.28006 69.1643 6.72898C69.7239 6.15669 70.4342 5.88115 71.2951 5.88115C72.1561 5.88115 72.8664 6.15669 73.4261 6.72898C74.0072 7.28006 74.287 8.0007 74.287 8.86976C74.287 9.73875 74.0072 10.4594 73.4261 11.0317C72.8664 11.5828 72.1561 11.8583 71.2951 11.8583C70.4342 11.8583 69.7239 11.5828 69.1643 11.0317Z" fill="#1D2D35" fill-opacity="0.5"/>
<path d="M87.309 5.3936V3.57077H79.2373V6.13546H83.5635L79.0215 12.3458V14.1686H87.5241V11.6039H82.7452L87.309 5.3936Z" fill="#1D2D35" fill-opacity="0.5"/>
<path d="M99.1337 9.99311C99.1983 9.59043 99.2412 9.2301 99.2412 8.86976C99.2412 7.28006 98.7253 5.96593 97.6919 4.88495C96.6803 3.80396 95.3671 3.27407 93.796 3.27407C92.1383 3.27407 90.7612 3.80396 89.706 4.88495C88.6515 5.94474 88.113 7.28006 88.113 8.86976C88.113 10.4806 88.6515 11.816 89.7278 12.8757C90.8041 13.9355 92.2248 14.4654 94.0111 14.4654C96.0771 14.4654 97.649 13.7024 98.7035 12.1975L96.4652 10.9257C95.9267 11.6252 95.1091 11.9855 94.0539 11.9855C92.397 11.9855 91.3855 11.3285 91.0192 9.99311H99.1337ZM90.9763 7.87352C91.299 6.51702 92.3106 5.73278 93.796 5.73278C95.0655 5.73278 96.1418 6.43224 96.4652 7.87352H90.9763Z" fill="#1D2D35" fill-opacity="0.5"/>
</svg>
