<svg width="108" height="21" viewBox="0 0 108 21" fill="none" xmlns="http://www.w3.org/2000/svg">
<path d="M8.87308 10.1833C8.87308 8.37375 7.51207 7.10197 5.84026 7.10197C4.16844 7.10197 2.80742 8.39518 2.80742 10.1833C2.80742 11.9499 4.16844 13.2647 5.84026 13.2647C7.51376 13.263 8.87308 11.9928 8.87308 10.1833ZM8.89698 15.5691V14.1686C8.07217 15.1385 6.84436 15.7406 5.37406 15.7406C2.31902 15.7406 0 13.3702 0 10.1833C0 7.01618 2.40782 4.60454 5.44236 4.60454C6.87001 4.60454 8.07392 5.20827 8.89867 6.15511V4.79753H11.6412V15.5691H8.89698Z" fill="#1D2D35" fill-opacity="0.5"/>
<path d="M24.9627 13.1772C24.003 13.1772 23.7366 12.8324 23.7366 11.9285V7.14645H25.4989V4.79753H23.7366V2.16981H20.9257V4.79753H17.3055V4.14266C17.3055 3.23706 17.6624 2.8923 18.6443 2.8923H19.2608V0.802336H17.9083C15.5892 0.802336 14.4963 1.53473 14.4963 3.77481V4.79588H12.9355V7.14483H14.4963V15.5674H17.3072V7.14483H20.9274V12.4233C20.9274 14.6205 21.7967 15.5691 24.0713 15.5691H25.5211V13.1772H24.9627Z" fill="#1D2D35" fill-opacity="0.5"/>
<path d="M35.0432 9.21333C34.8434 7.81283 33.66 6.97321 32.2785 6.97321C30.8952 6.97321 29.758 7.7914 29.4694 9.21333H35.0432ZM29.4455 10.8942C29.647 12.4877 30.8287 13.3933 32.3229 13.3933C33.5046 13.3933 34.4199 12.8538 34.9544 11.9928H37.8318C37.1624 14.2758 35.0432 15.7406 32.2563 15.7406C28.8887 15.7406 26.5253 13.4576 26.5253 10.2047C26.5253 6.95178 29.0237 4.60285 32.3246 4.60285C35.6478 4.60285 38.0556 6.97327 38.0556 10.2047C38.0556 10.4422 38.0334 10.6781 37.9889 10.8942H29.4455Z" fill="#1D2D35" fill-opacity="0.5"/>
<path d="M55.9264 10.1833C55.9264 8.43804 54.5654 7.10197 52.8935 7.10197C51.2217 7.10197 49.8607 8.39518 49.8607 10.1833C49.8607 11.9499 51.2217 13.2647 52.8935 13.2647C54.5654 13.263 55.9264 11.9285 55.9264 10.1833ZM47.0943 4.79753H49.8368V6.198C50.6616 5.20662 51.8877 4.60454 53.3597 4.60454C56.3703 4.60454 58.7338 6.99637 58.7338 10.1618C58.7338 13.3289 56.3259 15.7422 53.2931 15.7422C51.8877 15.7422 50.7282 15.2028 49.9256 14.2989V20.0014H47.0943V4.79753Z" fill="#1D2D35" fill-opacity="0.5"/>
<path d="M68.6195 10.1833C68.6195 8.37375 67.2602 7.10197 65.5865 7.10197C63.9148 7.10197 62.5538 8.39518 62.5538 10.1833C62.5538 11.9499 63.9148 13.2647 65.5865 13.2647C67.2602 13.263 68.6195 11.9928 68.6195 10.1833ZM68.6435 15.5691V14.1686C67.8187 15.1385 66.5906 15.7406 65.1202 15.7406C62.0654 15.7406 59.7464 13.3702 59.7464 10.1833C59.7464 7.01618 62.1542 4.60454 65.1871 4.60454C66.6146 4.60454 67.8187 5.20827 68.6435 6.15511V4.79753H71.3862V15.5691H68.6435Z" fill="#1D2D35" fill-opacity="0.5"/>
<path d="M42.1505 5.85324C42.1505 5.85324 42.849 4.60454 44.5583 4.60454C45.2892 4.60454 45.7623 4.84702 45.7623 4.84702V7.59517C45.7623 7.59517 44.7308 6.97987 43.783 7.10359C42.8353 7.22732 42.2359 8.06856 42.2393 9.19356V15.5707H39.408V4.79918H42.1505V5.85324Z" fill="#1D2D35" fill-opacity="0.5"/>
<path d="M84.1949 4.79751L77.2704 19.9667H74.3504L77.069 14.1026L72.4721 4.79751H75.7818L78.4712 11.0146L81.2308 4.79751H84.1949Z" fill="#1D2D35" fill-opacity="0.5"/>
<path d="M106.3 4.55339L99.4348 0.726452C97.4195 -0.396884 94.9008 1.00688 94.9008 3.2552V3.64779C94.9008 4.00244 95.097 4.3307 95.4146 4.5072L96.7109 5.2297C97.0915 5.4425 97.5662 5.17692 97.5662 4.75299V3.77646C97.5662 3.28819 98.1131 2.98303 98.5502 3.22716L104.496 6.54274C104.934 6.78687 104.934 7.3972 104.496 7.63971L98.5502 10.9553C98.1131 11.1994 97.5662 10.8942 97.5662 10.406V9.88633C97.5662 7.63802 95.0476 6.23263 93.031 7.35759L86.1662 11.1845C84.151 12.3079 84.151 15.1187 86.1662 16.242L93.031 20.069C95.0457 21.1923 97.5662 19.7886 97.5662 17.5402V17.1476C97.5662 16.793 97.3701 16.4664 97.0525 16.2882L95.7562 15.5641C95.3756 15.3513 94.9008 15.6169 94.9008 16.0408V17.0174C94.9008 17.5056 94.3547 17.8107 93.9169 17.5666L87.9711 14.251C87.534 14.0069 87.534 13.3966 87.9711 13.1525L93.9169 9.83684C94.3547 9.59271 94.9008 9.89789 94.9008 10.3862V10.9058C94.9008 13.1541 97.4195 14.5595 99.4348 13.4345L106.3 9.60758C108.315 8.48752 108.315 5.67673 106.3 4.55339Z" fill="#1D2D35" fill-opacity="0.5"/>
</svg>
