<svg width="115" height="26" viewBox="0 0 115 26" fill="none" xmlns="http://www.w3.org/2000/svg">
<path d="M33.8109 7.15752H38.6138C41.2743 7.15752 42.6555 8.24838 42.6555 10.2967V10.3987C42.6934 10.9989 42.5146 11.5928 42.1517 12.0724C41.7888 12.552 41.2658 12.8854 40.6778 13.012C41.3819 13.074 42.0332 13.4112 42.4901 13.9505C42.9471 14.4897 43.1729 15.1875 43.1185 15.8922V15.9629C43.1185 18.1995 41.651 19.3767 38.8336 19.3767H33.8109V7.15752ZM38.1665 12.1723C39.5006 12.1723 40.0264 11.6936 40.0264 10.6027V10.5321C40.0264 9.51189 39.4457 9.04886 38.1508 9.04886H36.5106V12.188L38.1665 12.1723ZM38.4019 17.4539C39.7675 17.4539 40.3874 16.834 40.3874 15.7274V15.6568C40.3874 14.5267 39.7675 13.9538 38.2685 13.9538H36.5106V17.4618L38.4019 17.4539Z" fill="#8C9498"/>
<path d="M43.8406 16.8889C43.8406 14.8014 45.7477 14.0166 48.4866 14.0166H49.4911V13.6634C49.4911 12.604 49.1693 12.0232 48.0392 12.0232C47.8563 12.0015 47.6709 12.0175 47.4944 12.0701C47.3178 12.1228 47.1539 12.211 47.0128 12.3293C46.8716 12.4477 46.7562 12.5937 46.6736 12.7584C46.591 12.923 46.543 13.1028 46.5325 13.2867H44.1781C44.3351 11.1678 46.0066 10.2261 48.1962 10.2261C50.3858 10.2261 51.9318 11.1129 51.9318 13.5379V19.361H49.5225V18.2858C49.2201 18.7119 48.8125 19.0522 48.3393 19.2737C47.8662 19.4951 47.3437 19.5901 46.8228 19.5494C45.2062 19.5494 43.8406 18.7646 43.8406 16.8889ZM49.4911 16.2375V15.4528H48.5337C47.0975 15.4528 46.2656 15.7667 46.2656 16.7163C46.2656 17.3676 46.658 17.7993 47.5605 17.7993C48.6514 17.8307 49.4911 17.2264 49.4911 16.2375Z" fill="#8C9498"/>
<path d="M52.9754 16.5593H55.2827C55.3847 17.3441 55.7771 17.8307 56.8523 17.8307C57.8097 17.8307 58.257 17.4697 58.257 16.8497C58.257 16.2297 57.7234 15.9786 56.4442 15.7981C54.0898 15.4371 53.1481 14.7543 53.1481 13.0121C53.1481 11.2698 54.8589 10.2261 56.6796 10.2261C58.6651 10.2261 60.1484 10.9481 60.3681 12.9964H58.1001C57.9667 12.2587 57.5507 11.9212 56.7032 11.9212C55.8556 11.9212 55.4396 12.2979 55.4396 12.8394C55.4396 13.3809 55.8634 13.6242 57.1583 13.8126C59.395 14.1343 60.6271 14.6994 60.6271 16.6142C60.6271 18.5291 59.2302 19.5494 56.868 19.5494C54.5058 19.5494 53.0617 18.4899 52.9754 16.5593Z" fill="#8C9498"/>
<path d="M61.2628 15.0054V14.872C61.233 14.2587 61.331 13.6459 61.5505 13.0724C61.7699 12.4989 62.1061 11.9772 62.5377 11.5405C62.9693 11.1037 63.4869 10.7614 64.0578 10.5351C64.6286 10.3088 65.2402 10.2036 65.8538 10.226C68.1611 10.226 70.2094 11.5759 70.2094 14.77V15.4527H63.7977C63.8605 16.936 64.6688 17.8071 66.0108 17.8071C67.1566 17.8071 67.7216 17.3127 67.8786 16.5593H70.2329C69.9426 18.4899 68.4044 19.565 65.9637 19.565C63.2248 19.5493 61.2628 17.862 61.2628 15.0054ZM67.8001 13.9302C67.7216 12.5804 67.031 11.9683 65.8538 11.9683C65.3239 11.9658 64.8135 12.1688 64.4301 12.5346C64.0467 12.9005 63.82 13.4007 63.7977 13.9302H67.8001Z" fill="#8C9498"/>
<path d="M70.8608 15.0053V14.8719C70.8309 14.2572 70.9293 13.6431 71.1497 13.0685C71.3701 12.4939 71.7077 11.9714 72.141 11.5344C72.5743 11.0974 73.0938 10.7554 73.6665 10.5301C74.2393 10.3049 74.8526 10.2013 75.4675 10.226C77.5393 10.226 79.4464 11.1285 79.674 13.6947H77.3196C77.3039 13.4745 77.2442 13.2596 77.1438 13.0629C77.0435 12.8662 76.9047 12.6916 76.7356 12.5496C76.5665 12.4076 76.3706 12.301 76.1595 12.2362C75.9484 12.1713 75.7264 12.1496 75.5067 12.1722C74.2275 12.1722 73.3721 13.1297 73.3721 14.8405V14.9739C73.3721 16.7711 74.1569 17.6893 75.5617 17.6893C75.8007 17.7031 76.04 17.6691 76.2658 17.5895C76.4916 17.5098 76.6992 17.386 76.8767 17.2254C77.0542 17.0647 77.1979 16.8703 77.2996 16.6535C77.4012 16.4368 77.4587 16.202 77.4687 15.9628H79.7054C79.5719 18.0817 78.0338 19.5493 75.4361 19.5493C72.8385 19.5493 70.8608 17.9248 70.8608 15.0053Z" fill="#8C9498"/>
<path d="M80.2784 16.8889C80.2784 14.8014 82.1854 14.0166 84.9165 14.0166H85.9288V13.6634C85.9288 12.604 85.5992 12.0232 84.477 12.0232C84.2929 11.9992 84.1057 12.0134 83.9273 12.065C83.7489 12.1165 83.5831 12.2044 83.4402 12.323C83.2973 12.4416 83.1804 12.5884 83.0969 12.7542C83.0133 12.92 82.9648 13.1013 82.9545 13.2867H80.6001C80.7571 11.1678 82.4287 10.226 84.6104 10.226C86.7921 10.226 88.3539 11.1129 88.3539 13.5379V19.361H85.9445V18.2858C85.6422 18.7119 85.2345 19.0522 84.7614 19.2737C84.2882 19.4951 83.7657 19.5901 83.2449 19.5493C81.6753 19.5493 80.2784 18.7645 80.2784 16.8889ZM85.9288 16.2375V15.4527H84.9871C83.5509 15.4527 82.7112 15.7667 82.7112 16.7162C82.7112 17.3676 83.1115 17.7993 84.014 17.7993C85.1205 17.8306 85.9602 17.2264 85.9602 16.2375H85.9288Z" fill="#8C9498"/>
<path d="M90.0959 10.3987H92.568V11.7642C92.8375 11.279 93.2342 10.8765 93.7154 10.6C94.1966 10.3234 94.7441 10.1833 95.299 10.1946C95.8286 10.1523 96.3577 10.2822 96.8075 10.565C97.2572 10.8479 97.6035 11.2685 97.7947 11.7642C98.1243 11.2719 98.5722 10.8703 99.0973 10.596C99.6225 10.3218 100.208 10.1838 100.8 10.1946C102.456 10.1946 103.736 11.2384 103.736 13.6084V19.3296H101.279V13.9145C101.279 12.7687 100.769 12.2586 99.8744 12.2586C99.6364 12.2483 99.3989 12.2894 99.1783 12.3792C98.9576 12.4689 98.7589 12.6053 98.5958 12.7789C98.4326 12.9524 98.3089 13.1592 98.2329 13.385C98.1569 13.6108 98.1306 13.8503 98.1557 14.0872V19.3609H95.6914V13.9145C95.6914 12.7687 95.1656 12.2586 94.2945 12.2586C94.0559 12.2471 93.8176 12.2873 93.596 12.3766C93.3743 12.4659 93.1747 12.602 93.0106 12.7758C92.8466 12.9495 92.7221 13.1566 92.6457 13.383C92.5693 13.6094 92.5428 13.8496 92.568 14.0872V19.3609H90.0959V10.3987Z" fill="#8C9498"/>
<path d="M105.431 10.3987H107.911V11.8034C108.206 11.3121 108.624 10.9057 109.123 10.6237C109.622 10.3418 110.186 10.1939 110.76 10.1946C112.949 10.1946 114.683 11.8191 114.683 14.7699V14.9112C114.683 17.862 113.012 19.5179 110.76 19.5179C110.187 19.5414 109.618 19.4076 109.116 19.1309C108.614 18.8542 108.197 18.4452 107.911 17.9483V22.4059H105.431V10.3987ZM112.141 14.7935C112.141 12.9806 111.254 12.0938 110.006 12.0938C108.758 12.0938 107.824 12.9963 107.824 14.7935V14.9269C107.824 16.7162 108.68 17.5873 110.03 17.5873C111.38 17.5873 112.141 16.677 112.141 14.9583V14.7935Z" fill="#8C9498"/>
<path fill-rule="evenodd" clip-rule="evenodd" d="M15.4626 2.89219C8.49885 2.89219 4.86716 8.79065 2.83377 14.5558C2.58796 15.2527 1.82374 15.6184 1.12682 15.3726C0.628356 15.1968 0.299333 14.7558 0.242311 14.2639C0.219609 14.068 0.240019 13.8641 0.310012 13.6657C2.37322 7.81598 6.58941 0.216064 15.4626 0.216064C20.1007 0.216064 23.4204 3.28441 25.5674 6.97064C27.7201 10.6666 28.8678 15.2429 29.1265 18.9379C29.1451 19.2035 29.084 19.4686 28.9511 19.6993C27.7077 21.8577 25.6391 23.2643 23.2812 24.1258C20.9291 24.9852 18.2045 25.3362 15.4734 25.3371C13.1531 25.3733 10.8522 24.909 8.72744 23.9756C6.59935 23.0408 4.69816 21.6576 3.15382 19.9204C2.82528 19.5508 2.72734 19.0302 2.89911 18.5665L2.90012 18.5638L2.90204 18.5587L2.90858 18.5412L2.93227 18.4787C2.9527 18.4253 2.98231 18.3486 3.02047 18.252C3.09673 18.059 3.20741 17.7857 3.34735 17.4587C3.62599 16.8076 4.0263 15.93 4.50718 15.044C4.98173 14.1696 5.56528 13.2297 6.22151 12.4891C6.81975 11.8139 7.74963 10.9915 8.93983 10.9834L8.9489 10.9833C9.78993 10.9833 10.4808 11.3684 10.9781 11.7386C11.4793 12.1117 11.9345 12.5859 12.2993 12.972C12.3412 13.0163 12.3819 13.0594 12.4214 13.1014C12.7612 13.4616 13.021 13.7371 13.2678 13.9433C13.2956 13.9665 13.3211 13.987 13.3443 14.005C13.4246 13.923 13.5204 13.8154 13.6306 13.6787C14.0228 13.1926 14.4633 12.5077 14.8896 11.7745C15.3102 11.0509 15.6931 10.3221 15.9722 9.77075C16.1113 9.49604 16.2235 9.26757 16.3006 9.10863C16.3391 9.02921 16.3688 8.96727 16.3885 8.92575L16.4106 8.87918L16.4159 8.86808L16.417 8.8657C16.7307 8.19668 17.5275 7.90821 18.1966 8.22184C18.8657 8.5355 19.1539 9.3322 18.8402 10.0013L18.8373 10.0075L18.8304 10.0222L18.8047 10.0764C18.7824 10.1232 18.75 10.1908 18.7086 10.2761C18.6259 10.4468 18.5068 10.6892 18.3598 10.9796C18.0667 11.5583 17.6585 12.3363 17.2031 13.1195C16.7534 13.8931 16.233 14.715 15.7136 15.3589C15.456 15.6782 15.164 15.9976 14.8482 16.2488C14.5691 16.4708 14.0768 16.7986 13.4457 16.7986C12.6112 16.7986 11.9537 16.3327 11.5518 15.9968C11.1731 15.6803 10.7947 15.2781 10.4768 14.9401C10.4349 14.8955 10.394 14.8521 10.3543 14.81C9.97747 14.4113 9.66947 14.1007 9.38006 13.8852C9.12641 13.6964 8.9969 13.6654 8.95971 13.6604C8.95971 13.6604 8.95704 13.6614 8.9547 13.6622C8.91379 13.6767 8.668 13.7633 8.22445 14.2639C7.76456 14.7829 7.29404 15.5194 6.85922 16.3206C6.43072 17.1101 6.06636 17.9071 5.80767 18.5116C5.77433 18.5895 5.74285 18.6639 5.71331 18.7346C6.89094 19.908 8.27738 20.855 9.80374 21.5255C11.5791 22.3054 13.502 22.6928 15.4409 22.6612L15.4626 22.661C17.9939 22.661 20.3899 22.333 22.3628 21.6122C24.1779 20.949 25.5624 19.9825 26.4231 18.6994C26.1314 15.4111 25.084 11.4578 23.255 8.31753C21.3407 5.03092 18.7431 2.89219 15.4626 2.89219ZM13.1243 14.1951C13.1243 14.1951 13.1302 14.1907 13.1414 14.1849C13.1299 14.1928 13.1243 14.1951 13.1243 14.1951Z" fill="#8C9498"/>
</svg>
